<mxfile host="Electron" agent="Mozilla/5.0 (X11; Linux x86_64) AppleWebKit/537.36 (KHTML, like Gecko) draw.io/26.2.15 Chrome/134.0.6998.205 Electron/35.2.1 Safari/537.36" version="26.2.15">
  <diagram name="Page-1" id="sBIdsmWVlm6gfPQeycvf">
    <mxGraphModel dx="8360" dy="3648" grid="1" gridSize="10" guides="1" tooltips="1" connect="1" arrows="1" fold="1" page="1" pageScale="1" pageWidth="850" pageHeight="1100" math="0" shadow="0">
      <root>
        <mxCell id="0" />
        <mxCell id="1" parent="0" />
        <mxCell id="qA1v9bkJFHQIKitZymi2-3" value="frame" style="shape=umlFrame;whiteSpace=wrap;html=1;pointerEvents=0;" vertex="1" parent="1">
          <mxGeometry x="-530" y="520" width="1130" height="4550" as="geometry" />
        </mxCell>
        <mxCell id="qA1v9bkJFHQIKitZymi2-4" value="Administrador" style="shape=umlActor;verticalLabelPosition=bottom;verticalAlign=top;html=1;outlineConnect=0;" vertex="1" parent="1">
          <mxGeometry x="-790" y="1500" width="200" height="400" as="geometry" />
        </mxCell>
        <mxCell id="qA1v9bkJFHQIKitZymi2-5" value="CU01-Iniciar Sesion" style="ellipse;whiteSpace=wrap;html=1;" vertex="1" parent="1">
          <mxGeometry x="-60" y="600" width="120" height="80" as="geometry" />
        </mxCell>
        <mxCell id="qA1v9bkJFHQIKitZymi2-6" value="CU03-Cerrar Sesion" style="ellipse;whiteSpace=wrap;html=1;" vertex="1" parent="1">
          <mxGeometry x="-60" y="710" width="120" height="80" as="geometry" />
        </mxCell>
        <mxCell id="qA1v9bkJFHQIKitZymi2-7" value="CU-8-Consultar Convocatorias" style="ellipse;whiteSpace=wrap;html=1;" vertex="1" parent="1">
          <mxGeometry x="-60" y="1200" width="120" height="80" as="geometry" />
        </mxCell>
        <mxCell id="qA1v9bkJFHQIKitZymi2-8" value="CU-4-Consultar Cargos" style="ellipse;whiteSpace=wrap;html=1;" vertex="1" parent="1">
          <mxGeometry x="-60" y="820" width="120" height="70" as="geometry" />
        </mxCell>
        <mxCell id="qA1v9bkJFHQIKitZymi2-12" value="CU-4-Registrar Experiencia Laboral" style="ellipse;whiteSpace=wrap;html=1;" vertex="1" parent="1">
          <mxGeometry x="-60" y="1910" width="120" height="70" as="geometry" />
        </mxCell>
        <mxCell id="qA1v9bkJFHQIKitZymi2-89" style="edgeStyle=orthogonalEdgeStyle;rounded=0;orthogonalLoop=1;jettySize=auto;html=1;entryX=0;entryY=0.5;entryDx=0;entryDy=0;" edge="1" parent="1" source="qA1v9bkJFHQIKitZymi2-13" target="qA1v9bkJFHQIKitZymi2-87">
          <mxGeometry relative="1" as="geometry" />
        </mxCell>
        <mxCell id="qA1v9bkJFHQIKitZymi2-90" style="edgeStyle=orthogonalEdgeStyle;rounded=0;orthogonalLoop=1;jettySize=auto;html=1;entryX=0;entryY=0;entryDx=0;entryDy=0;" edge="1" parent="1" source="qA1v9bkJFHQIKitZymi2-13" target="qA1v9bkJFHQIKitZymi2-88">
          <mxGeometry relative="1" as="geometry">
            <Array as="points">
              <mxPoint x="170" y="2060" />
              <mxPoint x="170" y="2082" />
            </Array>
          </mxGeometry>
        </mxCell>
        <mxCell id="qA1v9bkJFHQIKitZymi2-13" value="CU-4-Consultar Experiencia Laboral" style="ellipse;whiteSpace=wrap;html=1;" vertex="1" parent="1">
          <mxGeometry x="-60" y="1990" width="120" height="70" as="geometry" />
        </mxCell>
        <mxCell id="qA1v9bkJFHQIKitZymi2-81" style="edgeStyle=orthogonalEdgeStyle;rounded=0;orthogonalLoop=1;jettySize=auto;html=1;entryX=0;entryY=0.5;entryDx=0;entryDy=0;" edge="1" parent="1" source="qA1v9bkJFHQIKitZymi2-15" target="qA1v9bkJFHQIKitZymi2-78">
          <mxGeometry relative="1" as="geometry" />
        </mxCell>
        <mxCell id="qA1v9bkJFHQIKitZymi2-15" value="CU-4-Consultar Estudios" style="ellipse;whiteSpace=wrap;html=1;" vertex="1" parent="1">
          <mxGeometry x="-60" y="2170" width="120" height="70" as="geometry" />
        </mxCell>
        <mxCell id="qA1v9bkJFHQIKitZymi2-16" value="CU-5-Consulta Entrevistas" style="ellipse;whiteSpace=wrap;html=1;" vertex="1" parent="1">
          <mxGeometry x="-60" y="2420" width="120" height="60" as="geometry" />
        </mxCell>
        <mxCell id="qA1v9bkJFHQIKitZymi2-17" value="CU-5-Consulta Notificaciones" style="ellipse;whiteSpace=wrap;html=1;" vertex="1" parent="1">
          <mxGeometry x="-60" y="4940" width="120" height="80" as="geometry" />
        </mxCell>
        <mxCell id="qA1v9bkJFHQIKitZymi2-18" style="edgeStyle=orthogonalEdgeStyle;rounded=0;orthogonalLoop=1;jettySize=auto;html=1;entryX=1;entryY=0.5;entryDx=0;entryDy=0;" edge="1" parent="1" source="qA1v9bkJFHQIKitZymi2-20" target="qA1v9bkJFHQIKitZymi2-5">
          <mxGeometry relative="1" as="geometry" />
        </mxCell>
        <mxCell id="qA1v9bkJFHQIKitZymi2-19" value="&amp;lt;&amp;lt;Extend&amp;gt;&amp;gt;" style="edgeLabel;html=1;align=center;verticalAlign=middle;resizable=0;points=[];" vertex="1" connectable="0" parent="qA1v9bkJFHQIKitZymi2-18">
          <mxGeometry x="-0.0037" y="2" relative="1" as="geometry">
            <mxPoint y="-12" as="offset" />
          </mxGeometry>
        </mxCell>
        <mxCell id="qA1v9bkJFHQIKitZymi2-20" value="CU02-Recuperar Contrase;a" style="ellipse;whiteSpace=wrap;html=1;" vertex="1" parent="1">
          <mxGeometry x="120" y="600" width="120" height="80" as="geometry" />
        </mxCell>
        <mxCell id="qA1v9bkJFHQIKitZymi2-23" value="CU-4-Editar Hoja de vida" style="ellipse;whiteSpace=wrap;html=1;" vertex="1" parent="1">
          <mxGeometry x="-60" y="1830" width="120" height="60" as="geometry" />
        </mxCell>
        <mxCell id="qA1v9bkJFHQIKitZymi2-24" value="CU-4-Editar Estudios" style="ellipse;whiteSpace=wrap;html=1;" vertex="1" parent="1">
          <mxGeometry x="-60" y="2330" width="120" height="70" as="geometry" />
        </mxCell>
        <mxCell id="qA1v9bkJFHQIKitZymi2-25" value="CU-4- Editar Experiencia Laboral" style="ellipse;whiteSpace=wrap;html=1;" vertex="1" parent="1">
          <mxGeometry x="-60" y="2080" width="120" height="70" as="geometry" />
        </mxCell>
        <mxCell id="qA1v9bkJFHQIKitZymi2-27" value="" style="endArrow=classic;html=1;rounded=0;entryX=0;entryY=0.5;entryDx=0;entryDy=0;" edge="1" parent="1" target="qA1v9bkJFHQIKitZymi2-5">
          <mxGeometry width="50" height="50" relative="1" as="geometry">
            <mxPoint x="-550" y="1470" as="sourcePoint" />
            <mxPoint x="500" y="1240" as="targetPoint" />
          </mxGeometry>
        </mxCell>
        <mxCell id="qA1v9bkJFHQIKitZymi2-28" value="" style="endArrow=classic;html=1;rounded=0;entryX=0;entryY=0.5;entryDx=0;entryDy=0;" edge="1" parent="1" target="qA1v9bkJFHQIKitZymi2-6">
          <mxGeometry width="50" height="50" relative="1" as="geometry">
            <mxPoint x="-540" y="1470" as="sourcePoint" />
            <mxPoint x="500" y="1240" as="targetPoint" />
          </mxGeometry>
        </mxCell>
        <mxCell id="qA1v9bkJFHQIKitZymi2-31" value="" style="endArrow=classic;html=1;rounded=0;entryX=0;entryY=0.5;entryDx=0;entryDy=0;" edge="1" parent="1" target="qA1v9bkJFHQIKitZymi2-51">
          <mxGeometry width="50" height="50" relative="1" as="geometry">
            <mxPoint x="-540" y="1500" as="sourcePoint" />
            <mxPoint x="-30" y="1290" as="targetPoint" />
          </mxGeometry>
        </mxCell>
        <mxCell id="qA1v9bkJFHQIKitZymi2-32" value="" style="endArrow=classic;html=1;rounded=0;entryX=0;entryY=0.5;entryDx=0;entryDy=0;" edge="1" parent="1" target="qA1v9bkJFHQIKitZymi2-8">
          <mxGeometry width="50" height="50" relative="1" as="geometry">
            <mxPoint x="-540" y="1480" as="sourcePoint" />
            <mxPoint x="-30" y="1290" as="targetPoint" />
          </mxGeometry>
        </mxCell>
        <mxCell id="qA1v9bkJFHQIKitZymi2-33" value="" style="endArrow=classic;html=1;rounded=0;entryX=0;entryY=0.5;entryDx=0;entryDy=0;" edge="1" parent="1" target="qA1v9bkJFHQIKitZymi2-52">
          <mxGeometry width="50" height="50" relative="1" as="geometry">
            <mxPoint x="-540" y="1510" as="sourcePoint" />
            <mxPoint x="-30" y="1290" as="targetPoint" />
          </mxGeometry>
        </mxCell>
        <mxCell id="qA1v9bkJFHQIKitZymi2-34" value="" style="endArrow=classic;html=1;rounded=0;entryX=0;entryY=0.5;entryDx=0;entryDy=0;" edge="1" parent="1" target="qA1v9bkJFHQIKitZymi2-53">
          <mxGeometry width="50" height="50" relative="1" as="geometry">
            <mxPoint x="-540" y="1520" as="sourcePoint" />
            <mxPoint x="-30" y="1600" as="targetPoint" />
          </mxGeometry>
        </mxCell>
        <mxCell id="qA1v9bkJFHQIKitZymi2-36" value="" style="endArrow=classic;html=1;rounded=0;entryX=0;entryY=0.5;entryDx=0;entryDy=0;" edge="1" parent="1" target="qA1v9bkJFHQIKitZymi2-54">
          <mxGeometry width="50" height="50" relative="1" as="geometry">
            <mxPoint x="-540" y="1540" as="sourcePoint" />
            <mxPoint x="-30" y="1600" as="targetPoint" />
          </mxGeometry>
        </mxCell>
        <mxCell id="qA1v9bkJFHQIKitZymi2-37" value="" style="endArrow=classic;html=1;rounded=0;entryX=0;entryY=0.5;entryDx=0;entryDy=0;" edge="1" parent="1" target="qA1v9bkJFHQIKitZymi2-7">
          <mxGeometry width="50" height="50" relative="1" as="geometry">
            <mxPoint x="-540" y="1530" as="sourcePoint" />
            <mxPoint x="-30" y="1810" as="targetPoint" />
          </mxGeometry>
        </mxCell>
        <mxCell id="qA1v9bkJFHQIKitZymi2-38" value="" style="endArrow=classic;html=1;rounded=0;entryX=0;entryY=0.5;entryDx=0;entryDy=0;" edge="1" parent="1" target="qA1v9bkJFHQIKitZymi2-55">
          <mxGeometry width="50" height="50" relative="1" as="geometry">
            <mxPoint x="-540" y="1550" as="sourcePoint" />
            <mxPoint x="-30" y="1810" as="targetPoint" />
          </mxGeometry>
        </mxCell>
        <mxCell id="qA1v9bkJFHQIKitZymi2-39" value="" style="endArrow=classic;html=1;rounded=0;entryX=0;entryY=0.5;entryDx=0;entryDy=0;" edge="1" parent="1" target="qA1v9bkJFHQIKitZymi2-56">
          <mxGeometry width="50" height="50" relative="1" as="geometry">
            <mxPoint x="-540" y="1560" as="sourcePoint" />
            <mxPoint x="-30" y="1810" as="targetPoint" />
          </mxGeometry>
        </mxCell>
        <mxCell id="qA1v9bkJFHQIKitZymi2-40" value="" style="endArrow=classic;html=1;rounded=0;entryX=0;entryY=0.5;entryDx=0;entryDy=0;" edge="1" parent="1" target="qA1v9bkJFHQIKitZymi2-70">
          <mxGeometry width="50" height="50" relative="1" as="geometry">
            <mxPoint x="-540" y="1570" as="sourcePoint" />
            <mxPoint x="-30" y="1810" as="targetPoint" />
          </mxGeometry>
        </mxCell>
        <mxCell id="qA1v9bkJFHQIKitZymi2-43" value="" style="endArrow=classic;html=1;rounded=0;entryX=0;entryY=0.5;entryDx=0;entryDy=0;" edge="1" parent="1" target="qA1v9bkJFHQIKitZymi2-10">
          <mxGeometry width="50" height="50" relative="1" as="geometry">
            <mxPoint x="-540" y="1580" as="sourcePoint" />
            <mxPoint x="-30" y="1920" as="targetPoint" />
          </mxGeometry>
        </mxCell>
        <mxCell id="qA1v9bkJFHQIKitZymi2-47" value="Recursos Humanos" style="shape=umlActor;verticalLabelPosition=bottom;verticalAlign=top;html=1;outlineConnect=0;" vertex="1" parent="1">
          <mxGeometry x="-1360" y="1517.5" width="215" height="365" as="geometry" />
        </mxCell>
        <mxCell id="qA1v9bkJFHQIKitZymi2-51" value="CU-5-Activar Cargos" style="ellipse;whiteSpace=wrap;html=1;" vertex="1" parent="1">
          <mxGeometry x="-60" y="920" width="120" height="70" as="geometry" />
        </mxCell>
        <mxCell id="qA1v9bkJFHQIKitZymi2-52" value="CU-6-Desactivar Cargos" style="ellipse;whiteSpace=wrap;html=1;" vertex="1" parent="1">
          <mxGeometry x="-60" y="1020" width="120" height="70" as="geometry" />
        </mxCell>
        <mxCell id="qA1v9bkJFHQIKitZymi2-53" value="CU-07-Editar Cargos" style="ellipse;whiteSpace=wrap;html=1;" vertex="1" parent="1">
          <mxGeometry x="-60" y="1110" width="120" height="70" as="geometry" />
        </mxCell>
        <mxCell id="qA1v9bkJFHQIKitZymi2-54" value="CU-9-Editar Convocatorias" style="ellipse;whiteSpace=wrap;html=1;" vertex="1" parent="1">
          <mxGeometry x="-60" y="1290" width="120" height="80" as="geometry" />
        </mxCell>
        <mxCell id="qA1v9bkJFHQIKitZymi2-55" value="CU-10-Desactivar Convocatorias" style="ellipse;whiteSpace=wrap;html=1;" vertex="1" parent="1">
          <mxGeometry x="-60" y="1380" width="120" height="60" as="geometry" />
        </mxCell>
        <mxCell id="qA1v9bkJFHQIKitZymi2-56" value="CU-11-Activar Convocatorias" style="ellipse;whiteSpace=wrap;html=1;" vertex="1" parent="1">
          <mxGeometry x="-60" y="1460" width="120" height="60" as="geometry" />
        </mxCell>
        <mxCell id="qA1v9bkJFHQIKitZymi2-72" style="edgeStyle=orthogonalEdgeStyle;rounded=0;orthogonalLoop=1;jettySize=auto;html=1;" edge="1" parent="1" source="qA1v9bkJFHQIKitZymi2-58" target="qA1v9bkJFHQIKitZymi2-71">
          <mxGeometry relative="1" as="geometry" />
        </mxCell>
        <mxCell id="qA1v9bkJFHQIKitZymi2-74" style="edgeStyle=orthogonalEdgeStyle;rounded=0;orthogonalLoop=1;jettySize=auto;html=1;" edge="1" parent="1" source="qA1v9bkJFHQIKitZymi2-58" target="qA1v9bkJFHQIKitZymi2-73">
          <mxGeometry relative="1" as="geometry">
            <Array as="points">
              <mxPoint x="130" y="1780" />
              <mxPoint x="130" y="1830" />
            </Array>
          </mxGeometry>
        </mxCell>
        <mxCell id="qA1v9bkJFHQIKitZymi2-58" value="CU-4-Consultar Hoja de vida" style="ellipse;whiteSpace=wrap;html=1;" vertex="1" parent="1">
          <mxGeometry x="-60" y="1730" width="120" height="70" as="geometry" />
        </mxCell>
        <mxCell id="qA1v9bkJFHQIKitZymi2-70" value="CU-11-Consultar Postulaciones" style="ellipse;whiteSpace=wrap;html=1;" vertex="1" parent="1">
          <mxGeometry x="-60" y="1550" width="120" height="60" as="geometry" />
        </mxCell>
        <mxCell id="qA1v9bkJFHQIKitZymi2-71" value="CU-4-Consultar Hoja de vida Por Postulacion" style="ellipse;whiteSpace=wrap;html=1;" vertex="1" parent="1">
          <mxGeometry x="200" y="1680" width="120" height="80" as="geometry" />
        </mxCell>
        <mxCell id="qA1v9bkJFHQIKitZymi2-73" value="CU-4-Consultar Hoja de vida Por Entrevista" style="ellipse;whiteSpace=wrap;html=1;" vertex="1" parent="1">
          <mxGeometry x="200" y="1790" width="120" height="80" as="geometry" />
        </mxCell>
        <mxCell id="qA1v9bkJFHQIKitZymi2-75" value="&amp;lt;&amp;lt;Include&amp;gt;&amp;gt;" style="text;html=1;align=center;verticalAlign=middle;resizable=0;points=[];autosize=1;strokeColor=none;fillColor=none;" vertex="1" parent="1">
          <mxGeometry x="80" y="1690" width="90" height="30" as="geometry" />
        </mxCell>
        <mxCell id="qA1v9bkJFHQIKitZymi2-76" value="&amp;lt;&amp;lt;Include&amp;gt;&amp;gt;" style="text;html=1;align=center;verticalAlign=middle;resizable=0;points=[];autosize=1;strokeColor=none;fillColor=none;" vertex="1" parent="1">
          <mxGeometry x="90" y="1830" width="90" height="30" as="geometry" />
        </mxCell>
        <mxCell id="qA1v9bkJFHQIKitZymi2-78" value="CU-4-Consultar Estudios Por Postulacion" style="ellipse;whiteSpace=wrap;html=1;" vertex="1" parent="1">
          <mxGeometry x="210" y="2165" width="120" height="80" as="geometry" />
        </mxCell>
        <mxCell id="qA1v9bkJFHQIKitZymi2-79" value="CU-4-Consultar Estudios Por Entrevista" style="ellipse;whiteSpace=wrap;html=1;" vertex="1" parent="1">
          <mxGeometry x="210" y="2260" width="120" height="80" as="geometry" />
        </mxCell>
        <mxCell id="qA1v9bkJFHQIKitZymi2-80" value="&amp;lt;&amp;lt;Include&amp;gt;&amp;gt;" style="text;html=1;align=center;verticalAlign=middle;resizable=0;points=[];autosize=1;strokeColor=none;fillColor=none;" vertex="1" parent="1">
          <mxGeometry x="80" y="1990" width="90" height="30" as="geometry" />
        </mxCell>
        <mxCell id="qA1v9bkJFHQIKitZymi2-10" value="CU-4-Registrar Hoja de vida" style="ellipse;whiteSpace=wrap;html=1;" vertex="1" parent="1">
          <mxGeometry x="-60" y="1640" width="120" height="70" as="geometry" />
        </mxCell>
        <mxCell id="qA1v9bkJFHQIKitZymi2-87" value="CU-4-Consultar Experiencia Laboral Por Postulacion" style="ellipse;whiteSpace=wrap;html=1;" vertex="1" parent="1">
          <mxGeometry x="210" y="1990" width="120" height="70" as="geometry" />
        </mxCell>
        <mxCell id="qA1v9bkJFHQIKitZymi2-88" value="CU-4-Consultar Experiencia Laboral Por Entrevista" style="ellipse;whiteSpace=wrap;html=1;" vertex="1" parent="1">
          <mxGeometry x="210" y="2070" width="120" height="80" as="geometry" />
        </mxCell>
        <mxCell id="qA1v9bkJFHQIKitZymi2-91" value="&amp;lt;&amp;lt;Include&amp;gt;&amp;gt;" style="text;html=1;align=center;verticalAlign=middle;resizable=0;points=[];autosize=1;strokeColor=none;fillColor=none;" vertex="1" parent="1">
          <mxGeometry x="80" y="2210" width="90" height="30" as="geometry" />
        </mxCell>
        <mxCell id="qA1v9bkJFHQIKitZymi2-92" style="edgeStyle=orthogonalEdgeStyle;rounded=0;orthogonalLoop=1;jettySize=auto;html=1;entryX=0;entryY=0.625;entryDx=0;entryDy=0;entryPerimeter=0;" edge="1" parent="1" source="qA1v9bkJFHQIKitZymi2-15" target="qA1v9bkJFHQIKitZymi2-79">
          <mxGeometry relative="1" as="geometry">
            <Array as="points">
              <mxPoint y="2310" />
            </Array>
          </mxGeometry>
        </mxCell>
        <mxCell id="qA1v9bkJFHQIKitZymi2-93" value="&amp;lt;&amp;lt;Include&amp;gt;&amp;gt;" style="text;html=1;align=center;verticalAlign=middle;resizable=0;points=[];autosize=1;strokeColor=none;fillColor=none;" vertex="1" parent="1">
          <mxGeometry x="70" y="2285" width="90" height="30" as="geometry" />
        </mxCell>
        <mxCell id="qA1v9bkJFHQIKitZymi2-94" value="&amp;lt;&amp;lt;Include&amp;gt;&amp;gt;" style="text;html=1;align=center;verticalAlign=middle;resizable=0;points=[];autosize=1;strokeColor=none;fillColor=none;rotation=10;" vertex="1" parent="1">
          <mxGeometry x="70" y="2050" width="90" height="30" as="geometry" />
        </mxCell>
        <mxCell id="qA1v9bkJFHQIKitZymi2-95" value="CU-5-Confirmar Asistencia De Entrevistas" style="ellipse;whiteSpace=wrap;html=1;" vertex="1" parent="1">
          <mxGeometry x="-60" y="2490" width="120" height="80" as="geometry" />
        </mxCell>
        <mxCell id="qA1v9bkJFHQIKitZymi2-96" value="CU-5-Confirmar No Asistencia De Entrevistas" style="ellipse;whiteSpace=wrap;html=1;" vertex="1" parent="1">
          <mxGeometry x="-60" y="2580" width="120" height="80" as="geometry" />
        </mxCell>
        <mxCell id="qA1v9bkJFHQIKitZymi2-97" value="CU-5-Consultar Ausencias" style="ellipse;whiteSpace=wrap;html=1;" vertex="1" parent="1">
          <mxGeometry x="-60" y="2680" width="120" height="80" as="geometry" />
        </mxCell>
        <mxCell id="qA1v9bkJFHQIKitZymi2-98" value="CU-5-Solicitar Ausencia" style="ellipse;whiteSpace=wrap;html=1;" vertex="1" parent="1">
          <mxGeometry x="-60" y="2780" width="120" height="80" as="geometry" />
        </mxCell>
        <mxCell id="qA1v9bkJFHQIKitZymi2-99" value="CU-5-Aceptar Ausencia De Empleado" style="ellipse;whiteSpace=wrap;html=1;" vertex="1" parent="1">
          <mxGeometry x="-60" y="2880" width="120" height="80" as="geometry" />
        </mxCell>
        <mxCell id="qA1v9bkJFHQIKitZymi2-100" value="CU-5-Rechazar Ausencia De Empleado" style="ellipse;whiteSpace=wrap;html=1;" vertex="1" parent="1">
          <mxGeometry x="-60" y="2990" width="120" height="80" as="geometry" />
        </mxCell>
        <mxCell id="qA1v9bkJFHQIKitZymi2-101" value="CU-5-Consultar Vacaciones" style="ellipse;whiteSpace=wrap;html=1;" vertex="1" parent="1">
          <mxGeometry x="-60" y="3100" width="120" height="80" as="geometry" />
        </mxCell>
        <mxCell id="qA1v9bkJFHQIKitZymi2-102" value="CU-5-Solicitar Vacacion" style="ellipse;whiteSpace=wrap;html=1;" vertex="1" parent="1">
          <mxGeometry x="-60" y="3210" width="120" height="80" as="geometry" />
        </mxCell>
        <mxCell id="qA1v9bkJFHQIKitZymi2-103" value="CU-5-Aceptar Vacacion" style="ellipse;whiteSpace=wrap;html=1;" vertex="1" parent="1">
          <mxGeometry x="-60" y="3310" width="120" height="80" as="geometry" />
        </mxCell>
        <mxCell id="qA1v9bkJFHQIKitZymi2-104" value="CU-5-Rechazar Vacacion" style="ellipse;whiteSpace=wrap;html=1;" vertex="1" parent="1">
          <mxGeometry x="-60" y="3410" width="120" height="80" as="geometry" />
        </mxCell>
        <mxCell id="qA1v9bkJFHQIKitZymi2-105" value="CU-5-Consultar Paz y Salvos" style="ellipse;whiteSpace=wrap;html=1;" vertex="1" parent="1">
          <mxGeometry x="-60" y="3510" width="120" height="80" as="geometry" />
        </mxCell>
        <mxCell id="qA1v9bkJFHQIKitZymi2-106" value="CU-5-Crear Paz y Salvo para empleado (Generar)" style="ellipse;whiteSpace=wrap;html=1;" vertex="1" parent="1">
          <mxGeometry x="-60" y="3610" width="120" height="80" as="geometry" />
        </mxCell>
        <mxCell id="qA1v9bkJFHQIKitZymi2-108" value="CU-5-Consultar Vinculaciones" style="ellipse;whiteSpace=wrap;html=1;" vertex="1" parent="1">
          <mxGeometry x="-60" y="3710" width="120" height="80" as="geometry" />
        </mxCell>
        <mxCell id="qA1v9bkJFHQIKitZymi2-111" style="edgeStyle=orthogonalEdgeStyle;rounded=0;orthogonalLoop=1;jettySize=auto;html=1;" edge="1" parent="1" source="qA1v9bkJFHQIKitZymi2-109" target="qA1v9bkJFHQIKitZymi2-110">
          <mxGeometry relative="1" as="geometry" />
        </mxCell>
        <mxCell id="qA1v9bkJFHQIKitZymi2-112" value="Include" style="edgeLabel;html=1;align=center;verticalAlign=middle;resizable=0;points=[];" vertex="1" connectable="0" parent="qA1v9bkJFHQIKitZymi2-111">
          <mxGeometry x="0.127" relative="1" as="geometry">
            <mxPoint as="offset" />
          </mxGeometry>
        </mxCell>
        <mxCell id="qA1v9bkJFHQIKitZymi2-109" value="CU-5-Asignar Vinculacion" style="ellipse;whiteSpace=wrap;html=1;" vertex="1" parent="1">
          <mxGeometry x="-60" y="3810" width="120" height="80" as="geometry" />
        </mxCell>
        <mxCell id="qA1v9bkJFHQIKitZymi2-110" value="CU-5-Subir Contrato (PDF)" style="ellipse;whiteSpace=wrap;html=1;" vertex="1" parent="1">
          <mxGeometry x="150" y="3810" width="120" height="80" as="geometry" />
        </mxCell>
        <mxCell id="qA1v9bkJFHQIKitZymi2-113" value="CU-5-Consultar Jornadas" style="ellipse;whiteSpace=wrap;html=1;" vertex="1" parent="1">
          <mxGeometry x="-60" y="3910" width="120" height="80" as="geometry" />
        </mxCell>
        <mxCell id="qA1v9bkJFHQIKitZymi2-114" value="CU-5-Corroborar Jornada" style="ellipse;whiteSpace=wrap;html=1;" vertex="1" parent="1">
          <mxGeometry x="-60" y="4010" width="120" height="80" as="geometry" />
        </mxCell>
        <mxCell id="qA1v9bkJFHQIKitZymi2-115" value="CU-5-No Corroborar Jornada" style="ellipse;whiteSpace=wrap;html=1;" vertex="1" parent="1">
          <mxGeometry x="-60" y="4110" width="120" height="80" as="geometry" />
        </mxCell>
        <mxCell id="qA1v9bkJFHQIKitZymi2-116" value="CU-5-Finalizar Jornada" style="ellipse;whiteSpace=wrap;html=1;" vertex="1" parent="1">
          <mxGeometry x="-60" y="4220" width="120" height="80" as="geometry" />
        </mxCell>
        <mxCell id="qA1v9bkJFHQIKitZymi2-117" value="CU-5-Consultar Horas Extra" style="ellipse;whiteSpace=wrap;html=1;" vertex="1" parent="1">
          <mxGeometry x="-60" y="4340" width="120" height="80" as="geometry" />
        </mxCell>
        <mxCell id="qA1v9bkJFHQIKitZymi2-121" style="edgeStyle=orthogonalEdgeStyle;rounded=0;orthogonalLoop=1;jettySize=auto;html=1;" edge="1" parent="1" source="qA1v9bkJFHQIKitZymi2-118" target="qA1v9bkJFHQIKitZymi2-120">
          <mxGeometry relative="1" as="geometry" />
        </mxCell>
        <mxCell id="qA1v9bkJFHQIKitZymi2-122" value="Include" style="edgeLabel;html=1;align=center;verticalAlign=middle;resizable=0;points=[];" vertex="1" connectable="0" parent="qA1v9bkJFHQIKitZymi2-121">
          <mxGeometry x="-0.0904" relative="1" as="geometry">
            <mxPoint as="offset" />
          </mxGeometry>
        </mxCell>
        <mxCell id="qA1v9bkJFHQIKitZymi2-118" value="CU-5-Consultar Chat Por Empleado" style="ellipse;whiteSpace=wrap;html=1;" vertex="1" parent="1">
          <mxGeometry x="-60" y="4450" width="120" height="80" as="geometry" />
        </mxCell>
        <mxCell id="qA1v9bkJFHQIKitZymi2-120" value="CU-5-Consultar Mensajes Por Chat" style="ellipse;whiteSpace=wrap;html=1;" vertex="1" parent="1">
          <mxGeometry x="160" y="4450" width="120" height="80" as="geometry" />
        </mxCell>
        <mxCell id="qA1v9bkJFHQIKitZymi2-126" style="edgeStyle=orthogonalEdgeStyle;rounded=0;orthogonalLoop=1;jettySize=auto;html=1;" edge="1" parent="1" source="qA1v9bkJFHQIKitZymi2-123" target="qA1v9bkJFHQIKitZymi2-125">
          <mxGeometry relative="1" as="geometry" />
        </mxCell>
        <mxCell id="qA1v9bkJFHQIKitZymi2-127" value="Include" style="edgeLabel;html=1;align=center;verticalAlign=middle;resizable=0;points=[];" vertex="1" connectable="0" parent="qA1v9bkJFHQIKitZymi2-126">
          <mxGeometry x="-0.0904" y="-2" relative="1" as="geometry">
            <mxPoint as="offset" />
          </mxGeometry>
        </mxCell>
        <mxCell id="qA1v9bkJFHQIKitZymi2-123" value="CU-5-Consultar Certificado" style="ellipse;whiteSpace=wrap;html=1;" vertex="1" parent="1">
          <mxGeometry x="-60" y="4570" width="120" height="80" as="geometry" />
        </mxCell>
        <mxCell id="qA1v9bkJFHQIKitZymi2-125" value="CU-5-Descargar Certificado" style="ellipse;whiteSpace=wrap;html=1;" vertex="1" parent="1">
          <mxGeometry x="160" y="4570" width="120" height="80" as="geometry" />
        </mxCell>
        <mxCell id="qA1v9bkJFHQIKitZymi2-128" value="CU-5-Consultar Sistema De Gestion" style="ellipse;whiteSpace=wrap;html=1;" vertex="1" parent="1">
          <mxGeometry x="-60" y="4690" width="120" height="80" as="geometry" />
        </mxCell>
        <mxCell id="qA1v9bkJFHQIKitZymi2-129" value="CU-5-Asignar el Sistema De Gestion Al empleado" style="ellipse;whiteSpace=wrap;html=1;" vertex="1" parent="1">
          <mxGeometry x="-60" y="4810" width="120" height="80" as="geometry" />
        </mxCell>
        <mxCell id="qA1v9bkJFHQIKitZymi2-130" value="" style="endArrow=classic;html=1;rounded=0;entryX=0;entryY=0.5;entryDx=0;entryDy=0;" edge="1" parent="1" target="qA1v9bkJFHQIKitZymi2-58">
          <mxGeometry width="50" height="50" relative="1" as="geometry">
            <mxPoint x="-540" y="1590" as="sourcePoint" />
            <mxPoint x="-150" y="1780" as="targetPoint" />
          </mxGeometry>
        </mxCell>
        <mxCell id="qA1v9bkJFHQIKitZymi2-131" value="" style="endArrow=classic;html=1;rounded=0;entryX=0.033;entryY=0.578;entryDx=0;entryDy=0;entryPerimeter=0;" edge="1" parent="1" target="qA1v9bkJFHQIKitZymi2-23">
          <mxGeometry width="50" height="50" relative="1" as="geometry">
            <mxPoint x="-540" y="1600" as="sourcePoint" />
            <mxPoint x="-150" y="1780" as="targetPoint" />
          </mxGeometry>
        </mxCell>
        <mxCell id="qA1v9bkJFHQIKitZymi2-132" value="" style="endArrow=classic;html=1;rounded=0;entryX=0;entryY=0.429;entryDx=0;entryDy=0;entryPerimeter=0;" edge="1" parent="1" target="qA1v9bkJFHQIKitZymi2-12">
          <mxGeometry width="50" height="50" relative="1" as="geometry">
            <mxPoint x="-540" y="1610" as="sourcePoint" />
            <mxPoint x="-150" y="1780" as="targetPoint" />
          </mxGeometry>
        </mxCell>
        <mxCell id="qA1v9bkJFHQIKitZymi2-133" value="" style="endArrow=classic;html=1;rounded=0;entryX=0;entryY=0.5;entryDx=0;entryDy=0;" edge="1" parent="1" target="qA1v9bkJFHQIKitZymi2-13">
          <mxGeometry width="50" height="50" relative="1" as="geometry">
            <mxPoint x="-540" y="1620" as="sourcePoint" />
            <mxPoint x="300" y="2160" as="targetPoint" />
          </mxGeometry>
        </mxCell>
        <mxCell id="qA1v9bkJFHQIKitZymi2-135" value="" style="endArrow=classic;html=1;rounded=0;entryX=0;entryY=0.5;entryDx=0;entryDy=0;" edge="1" parent="1" target="qA1v9bkJFHQIKitZymi2-25">
          <mxGeometry width="50" height="50" relative="1" as="geometry">
            <mxPoint x="-540" y="1630" as="sourcePoint" />
            <mxPoint x="300" y="2160" as="targetPoint" />
          </mxGeometry>
        </mxCell>
        <mxCell id="qA1v9bkJFHQIKitZymi2-136" value="" style="endArrow=classic;html=1;rounded=0;entryX=0;entryY=0.5;entryDx=0;entryDy=0;" edge="1" parent="1" target="qA1v9bkJFHQIKitZymi2-15">
          <mxGeometry width="50" height="50" relative="1" as="geometry">
            <mxPoint x="-540" y="1640" as="sourcePoint" />
            <mxPoint x="60" y="1980" as="targetPoint" />
          </mxGeometry>
        </mxCell>
        <mxCell id="qA1v9bkJFHQIKitZymi2-137" value="" style="endArrow=classic;html=1;rounded=0;entryX=0.323;entryY=0.103;entryDx=0;entryDy=0;entryPerimeter=0;" edge="1" parent="1" target="qA1v9bkJFHQIKitZymi2-24">
          <mxGeometry width="50" height="50" relative="1" as="geometry">
            <mxPoint x="-540" y="1650" as="sourcePoint" />
            <mxPoint x="60" y="1980" as="targetPoint" />
          </mxGeometry>
        </mxCell>
        <mxCell id="qA1v9bkJFHQIKitZymi2-138" value="" style="endArrow=classic;html=1;rounded=0;entryX=0;entryY=0;entryDx=0;entryDy=0;" edge="1" parent="1" target="qA1v9bkJFHQIKitZymi2-16">
          <mxGeometry width="50" height="50" relative="1" as="geometry">
            <mxPoint x="-540" y="1660" as="sourcePoint" />
            <mxPoint x="60" y="1980" as="targetPoint" />
          </mxGeometry>
        </mxCell>
        <mxCell id="qA1v9bkJFHQIKitZymi2-142" value="" style="endArrow=classic;html=1;rounded=0;entryX=0;entryY=0.5;entryDx=0;entryDy=0;" edge="1" parent="1" target="qA1v9bkJFHQIKitZymi2-95">
          <mxGeometry width="50" height="50" relative="1" as="geometry">
            <mxPoint x="-540" y="1670" as="sourcePoint" />
            <mxPoint x="-90" y="2110" as="targetPoint" />
          </mxGeometry>
        </mxCell>
        <mxCell id="qA1v9bkJFHQIKitZymi2-143" value="" style="endArrow=classic;html=1;rounded=0;entryX=0;entryY=0.5;entryDx=0;entryDy=0;" edge="1" parent="1" target="qA1v9bkJFHQIKitZymi2-96">
          <mxGeometry width="50" height="50" relative="1" as="geometry">
            <mxPoint x="-540" y="1680" as="sourcePoint" />
            <mxPoint x="-269.9999999999918" y="2670" as="targetPoint" />
          </mxGeometry>
        </mxCell>
        <mxCell id="qA1v9bkJFHQIKitZymi2-145" value="" style="endArrow=classic;html=1;rounded=0;entryX=0;entryY=0.5;entryDx=0;entryDy=0;" edge="1" parent="1" target="qA1v9bkJFHQIKitZymi2-97">
          <mxGeometry width="50" height="50" relative="1" as="geometry">
            <mxPoint x="-540" y="1690" as="sourcePoint" />
            <mxPoint x="-90" y="2610" as="targetPoint" />
          </mxGeometry>
        </mxCell>
        <mxCell id="qA1v9bkJFHQIKitZymi2-146" value="" style="endArrow=classic;html=1;rounded=0;entryX=0;entryY=0.5;entryDx=0;entryDy=0;" edge="1" parent="1" target="qA1v9bkJFHQIKitZymi2-98">
          <mxGeometry width="50" height="50" relative="1" as="geometry">
            <mxPoint x="-540" y="1700" as="sourcePoint" />
            <mxPoint x="-90" y="2610" as="targetPoint" />
          </mxGeometry>
        </mxCell>
        <mxCell id="qA1v9bkJFHQIKitZymi2-147" value="" style="endArrow=classic;html=1;rounded=0;entryX=0;entryY=0.5;entryDx=0;entryDy=0;" edge="1" parent="1" target="qA1v9bkJFHQIKitZymi2-99">
          <mxGeometry width="50" height="50" relative="1" as="geometry">
            <mxPoint x="-540" y="1730" as="sourcePoint" />
            <mxPoint x="-90" y="2510" as="targetPoint" />
          </mxGeometry>
        </mxCell>
        <mxCell id="qA1v9bkJFHQIKitZymi2-148" value="" style="endArrow=classic;html=1;rounded=0;entryX=0;entryY=0.5;entryDx=0;entryDy=0;" edge="1" parent="1" target="qA1v9bkJFHQIKitZymi2-100">
          <mxGeometry width="50" height="50" relative="1" as="geometry">
            <mxPoint x="-550" y="1750" as="sourcePoint" />
            <mxPoint x="-90" y="2710" as="targetPoint" />
          </mxGeometry>
        </mxCell>
        <mxCell id="qA1v9bkJFHQIKitZymi2-149" value="" style="endArrow=classic;html=1;rounded=0;entryX=0;entryY=0.5;entryDx=0;entryDy=0;" edge="1" parent="1" target="qA1v9bkJFHQIKitZymi2-101">
          <mxGeometry width="50" height="50" relative="1" as="geometry">
            <mxPoint x="-550" y="1780" as="sourcePoint" />
            <mxPoint x="-90" y="3110" as="targetPoint" />
          </mxGeometry>
        </mxCell>
        <mxCell id="qA1v9bkJFHQIKitZymi2-150" value="" style="endArrow=classic;html=1;rounded=0;entryX=0;entryY=0.5;entryDx=0;entryDy=0;" edge="1" parent="1" target="qA1v9bkJFHQIKitZymi2-102">
          <mxGeometry width="50" height="50" relative="1" as="geometry">
            <mxPoint x="-550" y="1850" as="sourcePoint" />
            <mxPoint x="-60" y="3010" as="targetPoint" />
          </mxGeometry>
        </mxCell>
        <mxCell id="qA1v9bkJFHQIKitZymi2-151" value="" style="endArrow=classic;html=1;rounded=0;entryX=0;entryY=0.5;entryDx=0;entryDy=0;" edge="1" parent="1" target="qA1v9bkJFHQIKitZymi2-103">
          <mxGeometry width="50" height="50" relative="1" as="geometry">
            <mxPoint x="-560" y="1870" as="sourcePoint" />
            <mxPoint x="-60" y="3310" as="targetPoint" />
          </mxGeometry>
        </mxCell>
        <mxCell id="qA1v9bkJFHQIKitZymi2-152" value="" style="endArrow=classic;html=1;rounded=0;entryX=0;entryY=0.5;entryDx=0;entryDy=0;" edge="1" parent="1" target="qA1v9bkJFHQIKitZymi2-104">
          <mxGeometry width="50" height="50" relative="1" as="geometry">
            <mxPoint x="-570" y="1880" as="sourcePoint" />
            <mxPoint x="-60" y="3310" as="targetPoint" />
          </mxGeometry>
        </mxCell>
        <mxCell id="qA1v9bkJFHQIKitZymi2-153" value="" style="endArrow=classic;html=1;rounded=0;entryX=0;entryY=0.5;entryDx=0;entryDy=0;" edge="1" parent="1" target="qA1v9bkJFHQIKitZymi2-105">
          <mxGeometry width="50" height="50" relative="1" as="geometry">
            <mxPoint x="-580" y="1900" as="sourcePoint" />
            <mxPoint x="-60" y="3510" as="targetPoint" />
          </mxGeometry>
        </mxCell>
        <mxCell id="qA1v9bkJFHQIKitZymi2-154" value="" style="endArrow=classic;html=1;rounded=0;entryX=0;entryY=0.5;entryDx=0;entryDy=0;" edge="1" parent="1" target="qA1v9bkJFHQIKitZymi2-106">
          <mxGeometry width="50" height="50" relative="1" as="geometry">
            <mxPoint x="-590" y="1910" as="sourcePoint" />
            <mxPoint x="-60" y="3310" as="targetPoint" />
          </mxGeometry>
        </mxCell>
        <mxCell id="qA1v9bkJFHQIKitZymi2-155" value="" style="endArrow=classic;html=1;rounded=0;entryX=0;entryY=0.5;entryDx=0;entryDy=0;" edge="1" parent="1" target="qA1v9bkJFHQIKitZymi2-108">
          <mxGeometry width="50" height="50" relative="1" as="geometry">
            <mxPoint x="-610" y="1910" as="sourcePoint" />
            <mxPoint x="-60" y="3810" as="targetPoint" />
          </mxGeometry>
        </mxCell>
        <mxCell id="qA1v9bkJFHQIKitZymi2-156" value="" style="endArrow=classic;html=1;rounded=0;entryX=0;entryY=0.5;entryDx=0;entryDy=0;" edge="1" parent="1" target="qA1v9bkJFHQIKitZymi2-109">
          <mxGeometry width="50" height="50" relative="1" as="geometry">
            <mxPoint x="-620" y="1920" as="sourcePoint" />
            <mxPoint x="-60" y="3810" as="targetPoint" />
          </mxGeometry>
        </mxCell>
        <mxCell id="qA1v9bkJFHQIKitZymi2-157" value="" style="endArrow=classic;html=1;rounded=0;entryX=0;entryY=0.5;entryDx=0;entryDy=0;" edge="1" parent="1" target="qA1v9bkJFHQIKitZymi2-113">
          <mxGeometry width="50" height="50" relative="1" as="geometry">
            <mxPoint x="-630" y="1920" as="sourcePoint" />
            <mxPoint x="-60" y="3410" as="targetPoint" />
          </mxGeometry>
        </mxCell>
        <mxCell id="qA1v9bkJFHQIKitZymi2-158" value="" style="endArrow=classic;html=1;rounded=0;entryX=0;entryY=0.5;entryDx=0;entryDy=0;" edge="1" parent="1" target="qA1v9bkJFHQIKitZymi2-114">
          <mxGeometry width="50" height="50" relative="1" as="geometry">
            <mxPoint x="-640" y="1930" as="sourcePoint" />
            <mxPoint x="-60" y="4210" as="targetPoint" />
          </mxGeometry>
        </mxCell>
        <mxCell id="qA1v9bkJFHQIKitZymi2-159" value="" style="endArrow=classic;html=1;rounded=0;entryX=0;entryY=0.5;entryDx=0;entryDy=0;" edge="1" parent="1" target="qA1v9bkJFHQIKitZymi2-115">
          <mxGeometry width="50" height="50" relative="1" as="geometry">
            <mxPoint x="-660" y="1930" as="sourcePoint" />
            <mxPoint x="-60" y="3910" as="targetPoint" />
          </mxGeometry>
        </mxCell>
        <mxCell id="qA1v9bkJFHQIKitZymi2-160" value="" style="endArrow=classic;html=1;rounded=0;entryX=0;entryY=0.5;entryDx=0;entryDy=0;" edge="1" parent="1" target="qA1v9bkJFHQIKitZymi2-116">
          <mxGeometry width="50" height="50" relative="1" as="geometry">
            <mxPoint x="-680" y="1920" as="sourcePoint" />
            <mxPoint x="-60" y="4210" as="targetPoint" />
          </mxGeometry>
        </mxCell>
        <mxCell id="qA1v9bkJFHQIKitZymi2-161" value="" style="endArrow=classic;html=1;rounded=0;entryX=0.017;entryY=0.344;entryDx=0;entryDy=0;entryPerimeter=0;" edge="1" parent="1" target="qA1v9bkJFHQIKitZymi2-117">
          <mxGeometry width="50" height="50" relative="1" as="geometry">
            <mxPoint x="-700" y="1920" as="sourcePoint" />
            <mxPoint x="-60" y="4310" as="targetPoint" />
          </mxGeometry>
        </mxCell>
        <mxCell id="qA1v9bkJFHQIKitZymi2-162" value="" style="endArrow=classic;html=1;rounded=0;entryX=0;entryY=0;entryDx=0;entryDy=0;" edge="1" parent="1" target="qA1v9bkJFHQIKitZymi2-118">
          <mxGeometry width="50" height="50" relative="1" as="geometry">
            <mxPoint x="-720" y="1920" as="sourcePoint" />
            <mxPoint x="-60" y="4510" as="targetPoint" />
          </mxGeometry>
        </mxCell>
        <mxCell id="qA1v9bkJFHQIKitZymi2-164" value="" style="endArrow=classic;html=1;rounded=0;entryX=0;entryY=0.5;entryDx=0;entryDy=0;" edge="1" parent="1" target="qA1v9bkJFHQIKitZymi2-123">
          <mxGeometry width="50" height="50" relative="1" as="geometry">
            <mxPoint x="-730" y="1920" as="sourcePoint" />
            <mxPoint x="70" y="4470" as="targetPoint" />
          </mxGeometry>
        </mxCell>
        <mxCell id="qA1v9bkJFHQIKitZymi2-165" value="" style="endArrow=classic;html=1;rounded=0;entryX=0;entryY=0.5;entryDx=0;entryDy=0;" edge="1" parent="1" target="qA1v9bkJFHQIKitZymi2-128">
          <mxGeometry width="50" height="50" relative="1" as="geometry">
            <mxPoint x="-740" y="1920" as="sourcePoint" />
            <mxPoint x="-90" y="4860" as="targetPoint" />
          </mxGeometry>
        </mxCell>
        <mxCell id="qA1v9bkJFHQIKitZymi2-166" value="" style="endArrow=classic;html=1;rounded=0;entryX=0;entryY=0.5;entryDx=0;entryDy=0;" edge="1" parent="1" target="qA1v9bkJFHQIKitZymi2-17">
          <mxGeometry width="50" height="50" relative="1" as="geometry">
            <mxPoint x="-780" y="1920" as="sourcePoint" />
            <mxPoint x="-440" y="4110" as="targetPoint" />
          </mxGeometry>
        </mxCell>
        <mxCell id="qA1v9bkJFHQIKitZymi2-167" value="" style="endArrow=classic;html=1;rounded=0;entryX=0;entryY=0.5;entryDx=0;entryDy=0;" edge="1" parent="1" target="qA1v9bkJFHQIKitZymi2-129">
          <mxGeometry width="50" height="50" relative="1" as="geometry">
            <mxPoint x="-760" y="1920" as="sourcePoint" />
            <mxPoint x="-440" y="4110" as="targetPoint" />
          </mxGeometry>
        </mxCell>
        <mxCell id="qA1v9bkJFHQIKitZymi2-168" value="" style="endArrow=classic;html=1;rounded=0;" edge="1" parent="1" source="qA1v9bkJFHQIKitZymi2-47" target="qA1v9bkJFHQIKitZymi2-4">
          <mxGeometry width="50" height="50" relative="1" as="geometry">
            <mxPoint x="-990" y="1750" as="sourcePoint" />
            <mxPoint x="-940" y="1700" as="targetPoint" />
          </mxGeometry>
        </mxCell>
      </root>
    </mxGraphModel>
  </diagram>
</mxfile>
